<svg width="36" height="36" viewBox="0 0 36 36" fill="none" xmlns="http://www.w3.org/2000/svg">
<path d="M18.0056 4.5C21.3212 4.5 25.7139 5.23957 29.2608 7.54427C32.7775 9.82929 35.5 13.6734 35.5 20C35.5 26.5278 35.4978 30.4681 35.086 32.7876C34.8804 33.9454 34.5865 34.6035 34.2194 34.9782C33.8742 35.3306 33.3956 35.5 32.626 35.5C31.8512 35.5 30.9896 35.3271 30.0023 35.0499C29.3533 34.8676 28.6738 34.6477 27.9419 34.4108C27.554 34.2852 27.1514 34.1549 26.7308 34.0229C24.324 33.2676 21.4553 32.5 18.0056 32.5C14.5555 32.5 11.7104 33.2678 9.31558 34.0232C8.91374 34.1499 8.52804 34.2751 8.15553 34.3961C7.4085 34.6386 6.71451 34.8639 6.04976 35.0497C5.05935 35.3266 4.18495 35.5 3.38513 35.5C2.76983 35.5 2.21009 35.0196 1.73368 33.8709C1.2692 32.7511 0.9708 31.1837 0.785446 29.4469C0.472065 26.5105 0.492833 23.2176 0.50649 21.0524C0.508952 20.6621 0.511183 20.3084 0.511183 20C0.511183 13.6734 3.23371 9.82929 6.75035 7.54427C10.2973 5.23957 14.69 4.5 18.0056 4.5Z" fill="#292F33" stroke="black"/>
<path d="M5.00977 19.562C5.00977 11.2469 10.8897 4.624 18.0056 4.624C25.1215 4.624 31.0014 11.2469 31.0014 19.562C31.0014 27.8771 25.1215 34.5 18.0056 34.5C10.8897 34.5 5.00977 27.8771 5.00977 19.562Z" fill="#F7DECE" stroke="black"/>
<path d="M18.0056 31C15.366 31 13.985 29.84 13.8365 29.707C13.3968 29.316 13.3968 28.684 13.8365 28.293C14.2718 27.905 14.9758 27.903 15.4155 28.283C15.4729 28.33 16.322 29 18.0056 29C19.7139 29 20.5619 28.31 20.5979 28.281C21.0467 27.907 21.7529 27.918 22.1814 28.31C22.6077 28.703 22.6088 29.321 22.1747 29.707C22.0262 29.84 20.6452 31 18.0056 31Z" fill="#DF1F32"/>
<path d="M19.1302 26H16.8809C16.2601 26 15.7563 25.553 15.7563 25C15.7563 24.447 16.2601 24 16.8809 24H19.1302C19.7522 24 20.2549 24.447 20.2549 25C20.2549 25.553 19.7522 26 19.1302 26Z" fill="#C1694F"/>
<path d="M12.6176 11.5589L12.6176 11.5588L12.6176 11.5588L12.3103 11.3949L12.0501 11.6263L8.67611 14.6263C8.13785 15.1049 7.59787 15.492 7.06997 15.8704L7.06522 15.8738L7.06095 15.8769C6.54089 16.2497 6.02078 16.6225 5.57044 17.0521C5.112 17.4894 4.71541 17.9944 4.43687 18.6434C4.15899 19.2909 4.00974 20.0558 4.00974 21C4.00974 21.4194 3.9579 21.6356 3.91132 21.7358C3.9012 21.7576 3.89293 21.7704 3.88785 21.7772C3.85379 21.7815 3.76879 21.7764 3.59638 21.7206C3.47994 21.6828 3.36941 21.6388 3.24226 21.5881C3.16862 21.5587 3.08941 21.5272 3.00024 21.4933C2.78356 21.411 2.51991 21.321 2.25153 21.295C1.97196 21.268 1.65035 21.3071 1.36288 21.5229C1.08428 21.7319 0.907755 22.0548 0.798878 22.4483C0.689798 22.8425 0.635793 23.3524 0.635793 24C0.635793 24.1735 0.64432 24.3403 0.65668 24.5H0.514978C0.493287 23.2059 0.500643 22.0112 0.506606 21.043C0.508985 20.6566 0.511143 20.3062 0.511143 20C0.511143 13.6646 3.24327 9.30539 6.787 6.518C10.3487 3.71646 14.7368 2.5 18.0056 2.5C21.2743 2.5 25.6624 3.71646 29.2241 6.518C32.7678 9.30539 35.5 13.6646 35.5 20C35.5 21.6616 35.5 23.1529 35.4928 24.5H35.3554C35.367 24.3406 35.3753 24.1736 35.3753 24C35.3753 23.3534 35.3215 22.8479 35.211 22.462C35.1008 22.0769 34.9177 21.7559 34.6183 21.5637C34.3133 21.3678 33.9833 21.3665 33.7155 21.4168C33.4546 21.4658 33.1964 21.5742 32.9852 21.6681C32.9294 21.6929 32.8768 21.7167 32.8267 21.7394C32.6684 21.811 32.5353 21.8712 32.4055 21.9161C32.2504 21.9698 32.1785 21.9713 32.1552 21.9688C32.1475 21.9597 32.1304 21.9357 32.11 21.8851C32.0534 21.7449 32.0014 21.4769 32.0014 21C32.0014 18.7779 30.7399 17.134 28.9447 16.0699C27.1612 15.0127 24.8176 14.5 22.5042 14.5C20.3478 14.5 17.8863 13.7766 15.9343 13.0328C14.9646 12.6632 14.1329 12.2935 13.5442 12.0164C13.25 11.8779 13.0169 11.7627 12.858 11.6825C12.7786 11.6424 12.7177 11.6111 12.6771 11.59L12.6316 11.5662L12.6206 11.5604L12.6181 11.5591L12.6176 11.5589Z" fill="#292F33" stroke="black"/>
<path d="M6.75909 6H29.2521V5L25.8782 4L23.6289 1L20.2549 2L18.0056 0L15.7563 2L12.3823 1L10.133 4L6.75909 5V6Z" fill="#A7A9AC"/>
<path d="M18.0056 5C18.6267 5 19.1302 4.32843 19.1302 3.5C19.1302 2.67157 18.6267 2 18.0056 2C17.3844 2 16.8809 2.67157 16.8809 3.5C16.8809 4.32843 17.3844 5 18.0056 5Z" fill="#F1F2F2"/>
<path d="M13.507 5C14.1281 5 14.6316 4.55228 14.6316 4C14.6316 3.44772 14.1281 3 13.507 3C12.8858 3 12.3823 3.44772 12.3823 4C12.3823 4.55228 12.8858 5 13.507 5Z" fill="#F1F2F2"/>
<path d="M22.5042 5C23.1253 5 23.6288 4.55228 23.6288 4C23.6288 3.44772 23.1253 3 22.5042 3C21.883 3 21.3795 3.44772 21.3795 4C21.3795 4.55228 21.883 5 22.5042 5Z" fill="#F1F2F2"/>
<path d="M12.3823 23C11.7615 23 11.2577 22.553 11.2577 22V20C11.2577 19.447 11.7615 19 12.3823 19C13.0031 19 13.507 19.447 13.507 20V22C13.507 22.553 13.0031 23 12.3823 23ZM23.6288 23C23.0069 23 22.5042 22.553 22.5042 22V20C22.5042 19.447 23.0069 19 23.6288 19C24.2508 19 24.7535 19.447 24.7535 20V22C24.7535 22.553 24.2508 23 23.6288 23Z" fill="#662113"/>
</svg>
