<svg width="24" height="24" viewBox="0 0 24 24" fill="none" xmlns="http://www.w3.org/2000/svg">
<path d="M18.6979 4.80181L18.7766 5.15607L19.1379 5.19101C21.5857 5.42782 23.5 7.49027 23.5 10C23.5 11.8905 22.411 13.5252 20.8249 14.3189L20.3273 14.5679L20.6279 15.0361C21.1785 15.8938 21.5 16.908 21.5 18C21.5 21.0379 19.0379 23.5 16 23.5C14.0501 23.5 12.3402 22.4827 11.363 20.9487L11.171 20.6472L10.8236 20.7314C10.5549 20.7965 10.2805 20.8333 10 20.8333C8.97306 20.8333 8.09018 20.5712 7.47651 20.0987C6.87831 19.6382 6.5 18.9526 6.5 18C6.5 17.9556 6.50315 17.9232 6.508 17.8731C6.51097 17.8425 6.51458 17.8053 6.51851 17.7546L6.55162 17.3271L6.1342 17.2292C4.99976 16.9631 3.46106 16.4352 1.82661 15.3876C2.1657 15.4232 2.54359 15.4606 2.95473 15.4979C4.79791 15.6655 7.31377 15.8333 10 15.8333H10.5V15.3336V15.3335V15.3334V15.3334V15.3333L10.5 15.3318L10.5001 15.3239L10.5005 15.2907C10.5009 15.2614 10.5019 15.2187 10.5039 15.167C10.5078 15.0624 10.5157 14.9255 10.5308 14.7891C10.5465 14.6476 10.5677 14.5294 10.5916 14.4525C10.6002 14.425 10.6058 14.4138 10.6057 14.4137C10.6056 14.4137 10.6045 14.4158 10.6021 14.4195L10.6021 14.4196C10.5973 14.427 10.545 14.5084 10.421 14.5475L10.3057 13.5719C6.3378 13.293 3.85372 12.65 2.3609 12.0752C2.44762 12.0823 2.53635 12.0896 2.62704 12.0968C4.30375 12.2301 6.65063 12.3633 9.33333 12.3633C9.58438 12.3633 9.78705 12.3606 9.94203 12.3586C9.97714 12.3581 10.0098 12.3577 10.04 12.3573L10.467 12.3522L10.5288 11.9296C10.5374 11.8707 10.5475 11.7867 10.5582 11.6982C10.5597 11.6857 10.5612 11.6732 10.5627 11.6606C10.5756 11.5544 10.5901 11.4367 10.6064 11.321C10.6228 11.2043 10.6402 11.096 10.6583 11.008C10.6732 10.9357 10.6843 10.8989 10.6879 10.887C10.6893 10.8821 10.6896 10.8814 10.6883 10.8839L11.0288 10.1782L10.2453 10.1667C6.79251 10.1163 4.29162 9.46407 2.66439 8.8336C2.58697 8.80361 2.51152 8.77366 2.43802 8.74382C4.49818 8.8572 6.56239 8.7971 8.10883 8.70987L9.21727 8.64735L8.43583 7.85873C8.23744 7.65852 8.07953 7.32171 7.97458 6.89803C7.87206 6.48413 7.83333 6.04133 7.83333 5.68733C7.83333 2.684 10.2596 0.5 13.3333 0.5C15.9581 0.5 18.1509 2.34043 18.6979 4.80181Z" fill="#BDDDF4" stroke="black"/>
</svg>
