<svg width="24" height="24" viewBox="0 0 24 24" fill="none" xmlns="http://www.w3.org/2000/svg">
<path d="M16.4216 17.6109L13.8073 14.9967L14.9978 13.8063L17.612 16.4205L16.4216 17.6109Z" fill="#9AAAB4" stroke="black"/>
<path d="M19.7726 22.86L19.7725 22.8599L15.8278 18.9153C15.499 18.5865 15.499 18.0536 15.8278 17.7249L17.7254 15.8274C18.0541 15.4986 18.587 15.4986 18.9158 15.8274L22.8604 19.7719C23.7129 20.625 23.7131 22.0081 22.8617 22.86C22.0089 23.7133 20.6254 23.7133 19.7726 22.86Z" fill="#66757F" stroke="black"/>
<path d="M17.6165 9.05807C17.6165 13.7845 13.7849 17.6161 9.05825 17.6161C4.33165 17.6161 0.5 13.7845 0.5 9.05807C0.5 4.33159 4.33165 0.5 9.05825 0.5C13.7849 0.5 17.6165 4.33159 17.6165 9.05807Z" fill="#8899A6" stroke="black"/>
<path d="M14.9326 9.05816C14.9326 12.3024 12.3026 14.9324 9.05829 14.9324C5.81398 14.9324 3.18396 12.3024 3.18396 9.05816C3.18396 5.81394 5.81398 3.18396 9.05829 3.18396C12.3026 3.18396 14.9326 5.81394 14.9326 9.05816Z" fill="#BBDDF5" stroke="black"/>
</svg>
