<svg width="24" height="24" viewBox="0 0 24 24" fill="none" xmlns="http://www.w3.org/2000/svg">
<path d="M18.1303 12.4986L15.537 13.3263L14.4818 9.25147L14.4706 9.20791L14.4517 9.16707L11.7339 3.28577C11.5038 2.69203 11.804 2.01224 12.443 1.77311L12.443 1.77311L12.4446 1.77249C13.0923 1.52751 13.8096 1.84707 14.0517 2.4531L14.0517 2.4531L14.0528 2.4557L18.1303 12.4986Z" fill="#EF9645" stroke="black"/>
<path d="M15.1424 1.16497L15.138 1.15655C14.8353 0.574718 14.0872 0.326679 13.4662 0.62967C12.8565 0.927532 12.6249 1.6315 12.9165 2.20254L16.5889 8.57564L16.5887 8.57578C16.5985 8.59365 16.6095 8.6154 16.6135 8.62426C16.6165 8.63109 16.6212 8.64266 16.623 8.64744C16.6266 8.65681 16.6292 8.66436 16.6303 8.66765C16.6315 8.67139 16.6326 8.67481 16.6335 8.6776C16.6343 8.68023 16.635 8.6823 16.6353 8.68358L16.6402 8.70028L16.6503 8.73665L16.683 8.85736C16.7105 8.95939 16.7491 9.10393 16.795 9.27646C16.887 9.62165 17.0086 10.0804 17.13 10.5384C17.2513 10.9965 17.3724 11.4541 17.4631 11.7972L17.5727 12.2116L17.6034 12.3277L17.6115 12.3583L17.6135 12.3662L17.6141 12.3682L17.6142 12.3687L17.6142 12.3688L17.1308 12.4966L17.6142 12.3688L18.04 13.9804L16.7975 12.8693C16.1199 12.2633 15.1817 11.4506 14.2811 10.6706C14.1979 10.5986 14.115 10.5268 14.0327 10.4555L14.0326 10.4554C12.9773 9.54052 12.1399 8.91453 11.5703 8.51938C11.2854 8.32179 11.0675 8.18189 10.9226 8.09243C10.8502 8.0477 10.7961 8.01557 10.761 7.99515C10.7434 7.98494 10.7307 7.97765 10.7227 7.97318L10.7145 7.96856L10.7136 7.96808L10.7135 7.96799L10.7133 7.96791L10.7132 7.96781L10.7131 7.96781L10.7043 7.96295L10.6951 7.95743C10.4799 7.82731 10.3614 7.79084 10.2584 7.78615C10.1491 7.78119 9.98869 7.80928 9.68939 7.94529L9.67766 7.95062L9.6776 7.95047L5.63895 9.66168C5.60276 9.68042 5.57574 9.70363 5.55415 9.73172L5.5532 9.73296L3.95701 11.7963L3.94875 11.8069L3.93991 11.8172C3.50988 12.315 3.57474 13.053 4.09362 13.4733L4.09401 13.4736C4.61751 13.8985 5.39922 13.832 5.84107 13.3341C5.84164 13.3328 5.8537 13.3167 5.88558 13.2729L6.03031 13.0736C6.14883 12.9103 6.30553 12.6947 6.46479 12.4784C6.62357 12.2627 6.78699 12.0435 6.91851 11.8736C6.98381 11.7893 7.04458 11.7128 7.09455 11.6536C7.11907 11.6246 7.14554 11.5944 7.17131 11.5677C7.18402 11.5545 7.20121 11.5374 7.22121 11.5199L7.22136 11.5198C7.23427 11.5085 7.27788 11.4704 7.3405 11.4392L15.1424 1.16497ZM15.1424 1.16497L15.1471 1.17322L19.1225 8.15431M15.1424 1.16497L19.1225 8.15431M19.1225 8.15431L19.1535 8.23455C19.182 8.30869 19.2232 8.41693 19.2737 8.55237C19.3749 8.82337 19.5133 9.20257 19.662 9.63489C19.9617 10.506 20.2949 11.5689 20.4563 12.3957C20.5509 12.881 20.4907 13.715 20.2908 14.6603C20.0941 15.5902 19.7778 16.5547 19.4158 17.2786L19.1225 8.15431ZM14.5257 14.9202C14.8905 14.5783 14.8905 14.5782 14.8904 14.5782L14.8903 14.578L14.8897 14.5774L14.8876 14.5752L14.8794 14.5664L14.8477 14.5328C14.82 14.5034 14.7795 14.4604 14.7277 14.4058C14.6242 14.2966 14.4757 14.1408 14.2957 13.9539C13.936 13.5802 13.449 13.0809 12.9419 12.5802C12.4362 12.081 11.9041 11.5743 11.4556 11.1887C11.2324 10.9968 11.0207 10.8269 10.8379 10.7017C10.7469 10.6393 10.6534 10.5813 10.5625 10.5366C10.4839 10.4979 10.3548 10.4423 10.2069 10.4376L10.2068 10.4376C9.98447 10.4307 9.73366 10.4821 9.50237 10.5461C9.26167 10.6128 9.00072 10.7054 8.74415 10.8065C8.23073 11.0089 7.7051 11.2577 7.34091 11.439L14.5257 14.9202ZM14.5257 14.9202L14.8905 14.5783M14.5257 14.9202L14.8905 14.5783M14.9018 14.5903L14.9122 14.603C15.1872 14.9379 15.2224 15.4067 14.9972 15.7784L12.9889 19.2681L12.9846 19.2756L12.98 19.2829C12.8773 19.4479 12.7307 19.5803 12.5563 19.6662L10.7212 20.6635L10.7087 20.6703L10.6958 20.6764C10.4959 20.7707 10.2695 20.8013 10.0495 20.7607L9.99684 20.751L9.94748 20.7304L6.31069 19.2113L6.31063 19.2113C6.02437 19.0917 5.77148 18.867 5.63713 18.5614L5.63706 18.5612C5.05944 17.2457 4.97731 15.9949 4.97514 15.9529L4.97505 15.9512C4.9442 15.312 4.37841 14.7916 3.6794 14.8233L3.67632 14.8235L3.67632 14.8234C2.98567 14.8505 2.47081 15.4193 2.50131 16.0594C2.50915 16.2101 2.73563 19.6094 5.57821 21.9079C7.19661 23.2154 9.20924 23.742 11.8581 23.397L11.8582 23.397C13.4532 23.1896 14.6296 22.9921 15.7587 22.2174C16.894 21.4384 18.0366 20.034 19.4157 17.2787L14.9018 14.5903ZM14.9018 14.5903L14.8905 14.5783M14.9018 14.5903L14.8905 14.5783M3.65677 14.3238C3.62688 14.325 3.5972 14.3269 3.56775 14.3295C3.59793 14.3513 3.6285 14.3721 3.65944 14.3922C3.65959 14.3923 3.65974 14.3923 3.65988 14.3924L3.65677 14.3238Z" fill="#FFDC5D" stroke="black"/>
</svg>
