<svg width="50" height="50" viewBox="0 0 50 50" fill="none" xmlns="http://www.w3.org/2000/svg">
<path fill-rule="evenodd" clip-rule="evenodd" d="M8.48972 14.8933C8.48972 10.534 11.9097 7 16.1284 7H36.6574C40.8762 7 44.2962 10.534 44.2962 14.8933V36.1065C44.2962 40.466 40.8762 44 36.6574 44H16.1284C11.9097 44 8.48972 40.466 8.48972 36.1065V30.1249L2 25.2688L8.48972 20.4127V14.8933ZM36.4637 25.5C36.4637 31.2472 31.9549 35.9063 26.3931 35.9063C20.8314 35.9063 16.3226 31.2472 16.3226 25.5C16.3226 19.7528 20.8314 15.0938 26.3931 15.0938C31.9549 15.0938 36.4637 19.7528 36.4637 25.5Z" fill="url(#paint0_linear_2025_68)"/>
<path fill-rule="evenodd" clip-rule="evenodd" d="M25.6042 20.9296C25.6042 23.0032 23.9775 24.6842 21.9707 24.6842C20.8062 24.6842 19.7694 24.118 19.1045 23.2374C18.8964 23.9541 18.7846 24.7138 18.7846 25.5004C18.7846 29.8427 22.1911 33.3628 26.3934 33.3628C30.5957 33.3628 34.0023 29.8427 34.0023 25.5004C34.0023 21.1581 30.5957 17.6379 26.3934 17.6379C25.6325 17.6379 24.8978 17.7534 24.2046 17.9682C25.0565 18.6553 25.6042 19.7264 25.6042 20.9296ZM29.3289 30.6426C30.3322 30.6426 31.1455 29.8021 31.1455 28.7654C31.1455 27.7285 30.3322 26.888 29.3289 26.888C28.3254 26.888 27.512 27.7285 27.512 28.7654C27.512 29.8021 28.3254 30.6426 29.3289 30.6426Z" fill="#303030"/>
<defs>
<linearGradient id="paint0_linear_2025_68" x1="12.2943" y1="44" x2="43.9709" y2="9.30294" gradientUnits="userSpaceOnUse">
<stop stop-color="#574DCC"/>
<stop offset="1" stop-color="#579AFF"/>
</linearGradient>
</defs>
</svg>
