<svg width="24" height="24" viewBox="0 0 24 24" fill="none" xmlns="http://www.w3.org/2000/svg">
<path d="M4.80768 7.27273C4.80768 3.5582 8.00087 0.5 12 0.5C15.9991 0.5 19.1923 3.5582 19.1923 7.27273V14.0455H17.1154V7.27273C17.1154 4.56113 14.7986 2.40909 12 2.40909C9.20135 2.40909 6.8846 4.56113 6.8846 7.27273V14.0455H4.80768V7.27273Z" fill="#AAB8C2" stroke="black"/>
<path d="M21.5 21.0909C21.5 22.3952 20.373 23.5 18.9231 23.5H5.07692C3.62704 23.5 2.5 22.3952 2.5 21.0909V12.3636C2.5 11.0593 3.62704 9.95453 5.07692 9.95453H18.9231C20.373 9.95453 21.5 11.0593 21.5 12.3636V21.0909Z" fill="#FFAC33" stroke="black"/>
</svg>
